<svg version="1.1" id="Layer_1" xmlns="http://www.w3.org/2000/svg" x="0" y="0" viewBox="0 0 213.88 80.44" xml:space="preserve"><style>.ada-st0{fill:#bad9ea}.ada-st2{fill:#173a64}</style><path class="ada-st0" d="M173.66 0h-26.5c-12.49 0-23.65 5.69-31.03 14.63 10.72 3.57 18.45 13.67 18.45 25.59s-7.73 22.02-18.45 25.59c7.38 8.93 18.54 14.63 31.03 14.63h26.5c22.21 0 40.22-18.01 40.22-40.22C213.88 18.01 195.87 0 173.66 0zM80.64 40.22c0-11.52 7.23-21.36 17.4-25.22C90.67 5.86 79.38 0 66.72 0h-26.5C18.01 0 0 18.01 0 40.22c0 22.21 18.01 40.22 40.22 40.22h26.5c12.66 0 23.95-5.86 31.32-15-10.17-3.87-17.4-13.7-17.4-25.22z"/><path d="M37.44 64.7z" fill="#fff"/><path class="ada-st2" d="M45.71 23.2c2.28 0 4.14-1.83 4.14-4.09s-1.86-4.09-4.14-4.09c-2.28 0-4.14 1.83-4.14 4.09s1.85 4.09 4.14 4.09zM56.51 50.36c-.82.25-1.42.94-1.61 1.76l-.04.09c-1.24 3.56-4.05 6.5-7.82 7.66-1.64.5-3.29.62-4.88.41h.01-.03c-2.4-.36-4.82-1.58-6.51-3.14-.04-.04-.09-.08-.13-.12-.18-.17-.35-.35-.51-.52-.15-.17-.3-.34-.45-.52-.05-.06-.09-.12-.14-.18-.95-1.21-1.74-2.61-2.19-4.19l-.01-.01c-.5-1.69-.67-3.52-.42-5.39.57-4.04 2.97-7.33 6.2-9.1l.08-.06c.75-.31 1.32-1.01 1.45-1.9.18-1.33-.7-2.56-1.99-2.75-.48-.07-.96.01-1.37.22h.03c-4.79 2.42-8.37 7.17-9.2 13.04-.38 2.71-.13 5.36.64 7.8h-.01c2.78 8.89 11.93 13.9 20.63 11.24 5.5-1.69 9.52-6.04 11.15-11.3l.01.03c.14-.45.15-.94.01-1.43-.35-1.29-1.66-2.03-2.9-1.64z"/><path class="ada-st2" d="M75.88 53.74c-.5-.86-1.62-1.17-2.49-.68l-2.73 1.53-6.92-10.43c-.26-.39-.76-1.2-2.11-1.28h-13v-4.13h9.01c1.29 0 2.34-1.16 2.34-2.59s-1.05-2.58-2.34-2.58h-9.01v-5.37c0-1.59-1.31-2.88-2.92-2.88-1.61 0-2.92 1.29-2.92 2.88v16.98c0 1.49 1.2 2.78 2.67 2.93.22.02.38.02.6.02h15.09l6.56 9.9c.33.49.81.8 1.34.92.13.04.27.04.41.06h.06c.25.01.48-.03.72-.13.04-.02.08-.02.13-.04.04-.02.08-.02.12-.04l4.7-2.63a1.77 1.77 0 0 0 .69-2.44zM180.94 64.45c0 .24-.2.44-.44.44h-36.18c-.24 0-.44-.2-.44-.44V51.24c0-.24.2-.44.44-.44h36.18c.24 0 .44.2.44.44v13.21m-23.51-7.36H161c.21 0 .38-.17.38-.39v-3.57a.38.38 0 0 0-.38-.38h-3.57c-.21 0-.39.17-.39.38v3.57c0 .21.17.39.39.39m-6.78 1.28h-3.57c-.22 0-.38.17-.38.38v3.57c0 .21.17.38.38.38h3.57c.21 0 .39-.17.39-.38v-3.57c0-.21-.17-.38-.39-.38m.01-1.28h3.56c.22 0 .39-.17.39-.39v-3.57c0-.21-.17-.38-.39-.38h-3.56c-.22 0-.39.17-.39.38v3.57c0 .21.17.39.39.39m13.53 0h3.57c.21 0 .38-.17.38-.39v-3.57a.38.38 0 0 0-.38-.38h-3.57a.38.38 0 0 0-.38.38v3.57c0 .21.17.39.38.39m6.77 0h3.57c.21 0 .38-.17.38-.39v-3.57a.38.38 0 0 0-.38-.38h-3.57c-.22 0-.38.17-.38.38v3.57c0 .21.16.39.38.39m-.01 1.28h-3.57a.38.38 0 0 0-.38.38v3.57c0 .21.17.38.38.38h3.57c.21 0 .39-.17.39-.38v-3.57c0-.21-.17-.38-.39-.38m-13.53 0h-3.57a.38.38 0 0 0-.38.38v3.57c0 .21.17.38.38.38h3.57c.22 0 .39-.17.39-.38v-3.57c0-.21-.17-.38-.39-.38m20.3 0h-3.58a.38.38 0 0 0-.38.38v3.57c0 .21.17.38.38.38h3.58c.21 0 .38-.17.38-.38v-3.57c.01-.21-.17-.38-.38-.38m-13.53 0h-3.57c-.22 0-.39.17-.39.38v3.57c0 .21.17.38.39.38h3.57c.22 0 .39-.17.39-.38v-3.57c0-.21-.18-.38-.39-.38m-19.43-9.82c0 .21.15.38.33.38h34.65c.18 0 .33-.18.33-.38V15.94c0-.21-.15-.39-.33-.39h-34.65c-.18 0-.33.17-.33.39v32.61zm4.69-5.78V20.8c0-.17.13-.32.3-.32h25.52c.17 0 .29.14.29.32v21.97c0 .17-.12.32-.29.32h-25.52c-.17 0-.3-.15-.3-.32M204.13 80.04v-4.46h-1.59v-.91h4.27v.91h-1.59v4.46h-1.09zM207.49 80.04v-5.37h1.62l.97 3.66.96-3.66h1.63v5.37h-1.01v-4.23l-1.07 4.23h-1.04l-1.06-4.23v4.23h-1zM118.54 35.11 97.08 23.94c0 4.6.52 7.56 3.67 9.2l10.78 5.61 7.01-3.64zM121.35 36.57l-7.01 3.65.01.01-13.5 7.02c-3.07 1.67-3.77 5.29-3.77 9.25l19.49-10.14c4.31-2.35 4.78-5.22 4.78-9.79z"/></svg>
